<svg width="43" height="56" viewBox="0 0 43 56" fill="none" xmlns="http://www.w3.org/2000/svg">
<path d="M0.5 0.5H42.5V55.5H32C14.603 55.5 0.5 41.397 0.5 24V0.5Z" fill="white"/>
<path d="M10.38 40L13.82 23.8H16L19.46 40H17.32L16.58 35.92H13.28L12.5 40H10.38ZM13.58 34.3H16.28L14.92 27L13.58 34.3ZM21.1038 40V23.8H27.3838V25.48H23.3638V30.84H26.6238V32.44H23.3638V38.38H27.4238V40H21.1038Z" fill="black"/>
<path d="M29.5083 40.92L29.1483 39.98C29.5616 39.9533 29.8549 39.8267 30.0283 39.6C30.2149 39.36 30.3083 39.04 30.3083 38.64H29.1683V36.36H31.3883V38.6C31.3883 39.3067 31.2483 39.86 30.9683 40.26C30.6883 40.6733 30.2016 40.8933 29.5083 40.92ZM29.1683 31.08V28.7H31.3283V31.08H29.1683Z" fill="#F00E0E"/>
<path d="M0.5 0.5H42.5V55.5H32C14.603 55.5 0.5 41.397 0.5 24V0.5Z" stroke="black"/>
<circle cx="29" cy="6" r="1" fill="#F00E0E"/>
<rect x="1" y="11" width="36" height="5" fill="black"/>
</svg>
