<svg width="30" height="36" viewBox="0 0 30 36" fill="none" xmlns="http://www.w3.org/2000/svg">
<g clip-path="url(#clip0_341_46)">
<path d="M1.09375 0.154728C1.75781 -0.119491 2.53906 -0.0210532 3.09375 0.407853L6.25 2.84067L9.40625 0.407853C10.1094 -0.133553 11.1484 -0.133553 11.8438 0.407853L15 2.84067L18.1562 0.407853C18.8594 -0.133553 19.8906 -0.133553 20.5938 0.407853L23.75 2.84067L26.9062 0.407853C27.4609 -0.0210532 28.2422 -0.119491 28.9062 0.154728C29.5703 0.428947 30 1.0266 30 1.68754V34.3125C30 34.9735 29.5703 35.5711 28.9062 35.8453C28.2422 36.1196 27.4609 36.0211 26.9062 35.5922L23.75 33.1594L20.5938 35.5922C19.8906 36.1336 18.8594 36.1336 18.1562 35.5922L15 33.1594L11.8438 35.5922C11.1406 36.1336 10.1016 36.1336 9.40625 35.5922L6.25 33.1594L3.09375 35.5922C2.53906 36.0211 1.75781 36.1196 1.09375 35.8453C0.429688 35.5711 0 34.9735 0 34.3125V1.68754C0 1.0266 0.429688 0.428947 1.09375 0.154728ZM7.5 10.125C6.8125 10.125 6.25 10.6313 6.25 11.25C6.25 11.8688 6.8125 12.375 7.5 12.375H22.5C23.1875 12.375 23.75 11.8688 23.75 11.25C23.75 10.6313 23.1875 10.125 22.5 10.125H7.5ZM6.25 24.75C6.25 25.3688 6.8125 25.875 7.5 25.875H22.5C23.1875 25.875 23.75 25.3688 23.75 24.75C23.75 24.1313 23.1875 23.625 22.5 23.625H7.5C6.8125 23.625 6.25 24.1313 6.25 24.75ZM7.5 16.875C6.8125 16.875 6.25 17.3813 6.25 18C6.25 18.6188 6.8125 19.125 7.5 19.125H22.5C23.1875 19.125 23.75 18.6188 23.75 18C23.75 17.3813 23.1875 16.875 22.5 16.875H7.5Z" fill="#C4C4C4"/>
</g>
<defs>
<clipPath id="clip0_341_46">
<rect width="30" height="36" fill="white"/>
</clipPath>
</defs>
</svg>
