<svg width="20" height="20" viewBox="0 0 20 20" fill="none" xmlns="http://www.w3.org/2000/svg">
<g clip-path="url(#clip0_11_78)">
<path d="M10.0044 5.50781C7.16516 5.50781 4.87499 7.51172 4.87499 9.99609C4.87499 12.4805 7.16516 14.4844 10.0044 14.4844C12.8437 14.4844 15.1339 12.4805 15.1339 9.99609C15.1339 7.51172 12.8437 5.50781 10.0044 5.50781ZM10.0044 12.9141C8.16963 12.9141 6.66963 11.6055 6.66963 9.99609C6.66963 8.38672 8.16516 7.07812 10.0044 7.07812C11.8437 7.07812 13.3393 8.38672 13.3393 9.99609C13.3393 11.6055 11.8393 12.9141 10.0044 12.9141ZM16.5402 5.32422C16.5402 5.90625 16.0044 6.37109 15.3437 6.37109C14.6785 6.37109 14.1473 5.90234 14.1473 5.32422C14.1473 4.74609 14.683 4.27734 15.3437 4.27734C16.0044 4.27734 16.5402 4.74609 16.5402 5.32422ZM19.9375 6.38672C19.8616 4.98437 19.4955 3.74219 18.3214 2.71875C17.1518 1.69531 15.7321 1.375 14.1294 1.30469C12.4777 1.22266 7.52677 1.22266 5.87499 1.30469C4.27677 1.37109 2.85713 1.69141 1.68303 2.71484C0.508919 3.73828 0.147313 4.98047 0.0669555 6.38281C-0.0267944 7.82812 -0.0267944 12.1602 0.0669555 13.6055C0.142848 15.0078 0.508919 16.25 1.68303 17.2734C2.85713 18.2969 4.27231 18.6172 5.87499 18.6875C7.52677 18.7695 12.4777 18.7695 14.1294 18.6875C15.7321 18.6211 17.1518 18.3008 18.3214 17.2734C19.491 16.25 19.8571 15.0078 19.9375 13.6055C20.0312 12.1602 20.0312 7.83203 19.9375 6.38672ZM17.8035 15.1562C17.4553 15.9219 16.7812 16.5117 15.9018 16.8203C14.5848 17.2773 11.4598 17.1719 10.0044 17.1719C8.54909 17.1719 5.41963 17.2734 4.10713 16.8203C3.23213 16.5156 2.55802 15.9258 2.20535 15.1562C1.68303 14.0039 1.80356 11.2695 1.80356 9.99609C1.80356 8.72266 1.68749 5.98437 2.20535 4.83594C2.55356 4.07031 3.22767 3.48047 4.10713 3.17187C5.42409 2.71484 8.54909 2.82031 10.0044 2.82031C11.4598 2.82031 14.5893 2.71875 15.9018 3.17187C16.7768 3.47656 17.4509 4.06641 17.8035 4.83594C18.3259 5.98828 18.2053 8.72266 18.2053 9.99609C18.2053 11.2695 18.3259 14.0078 17.8035 15.1562Z" fill="#0F0F0F"/>
</g>
<defs>
<clipPath id="clip0_11_78">
<rect width="20" height="20" fill="white"/>
</clipPath>
</defs>
</svg>
