<svg width="20" height="20" viewBox="0 0 20 20" fill="none" xmlns="http://www.w3.org/2000/svg">
<path d="M4.47679 17.5002H0.330357V5.8166H4.47679V17.5002ZM2.40134 4.22285C1.07545 4.22285 0 3.26192 0 2.10176C9.49017e-09 1.5445 0.252998 1.01006 0.703336 0.61601C1.15367 0.221964 1.76446 0.000591278 2.40134 0.000591278C3.03821 0.000591278 3.649 0.221964 4.09934 0.61601C4.54968 1.01006 4.80268 1.5445 4.80268 2.10176C4.80268 3.26192 3.72679 4.22285 2.40134 4.22285ZM19.9955 17.5002H15.858V11.8127C15.858 10.4572 15.8268 8.71895 13.7022 8.71895C11.5464 8.71895 11.2161 10.1916 11.2161 11.715V17.5002H7.07411V5.8166H11.0509V7.41035H11.1089C11.6625 6.49238 13.0147 5.52363 15.0321 5.52363C19.2286 5.52363 20 7.9416 20 11.0822V17.5002H19.9955Z" fill="#0F0F0F"/>
</svg>
