<svg width="20" height="20" viewBox="0 0 20 20" fill="none" xmlns="http://www.w3.org/2000/svg">
<path d="M4.47679 17.5002H0.330357V5.81662H4.47679V17.5002ZM2.40134 4.22287C1.07545 4.22287 0 3.26194 0 2.10178C9.49017e-09 1.54452 0.252998 1.01007 0.703336 0.616029C1.15367 0.221983 1.76446 0.000610352 2.40134 0.000610352C3.03821 0.000610352 3.649 0.221983 4.09934 0.616029C4.54968 1.01007 4.80268 1.54452 4.80268 2.10178C4.80268 3.26194 3.72679 4.22287 2.40134 4.22287ZM19.9955 17.5002H15.858V11.8127C15.858 10.4572 15.8268 8.71896 13.7022 8.71896C11.5464 8.71896 11.2161 10.1916 11.2161 11.7151V17.5002H7.07411V5.81662H11.0509V7.41037H11.1089C11.6625 6.4924 13.0147 5.52365 15.0321 5.52365C19.2286 5.52365 20 7.94162 20 11.0822V17.5002H19.9955Z" fill="white"/>
</svg>
