<svg width="30" height="30" viewBox="0 0 30 30" fill="none" xmlns="http://www.w3.org/2000/svg">
<g clip-path="url(#clip0_302_42)">
<path d="M7.44727 8.58398C7.52344 9.03516 7.91602 9.375 8.38477 9.375H9.35156C9.92578 9.375 10.3828 8.87695 10.3066 8.32031C10.084 6.66797 9.3457 5.14453 8.16211 3.94336C7.31836 3.08203 6.7793 1.99219 6.61523 0.808594C6.55078 0.345703 6.15234 0 5.67188 0H4.71094C4.13672 0 3.69141 0.498047 3.75586 1.05469C3.98437 2.92383 4.81055 4.64648 6.13477 6C6.83789 6.71484 7.28906 7.61133 7.44727 8.58398ZM14.0098 8.58398C14.0859 9.03516 14.4785 9.375 14.9473 9.375H15.9141C16.4883 9.375 16.9453 8.87695 16.8691 8.32031C16.6465 6.66797 15.9082 5.14453 14.7246 3.94336C13.8809 3.08203 13.3418 1.99219 13.1777 0.808594C13.1133 0.345703 12.7148 0 12.2344 0H11.2734C10.6992 0 10.248 0.498047 10.3184 1.05469C10.5469 2.92383 11.373 4.64648 12.6973 6C13.4004 6.71484 13.8516 7.61133 14.0098 8.58398ZM23.4375 11.25H1.875C0.837891 11.25 0 12.0879 0 13.125V24.375C0 27.4805 2.51953 30 5.625 30H16.875C19.9805 30 22.5 27.4805 22.5 24.375H23.4375C27.0586 24.375 30 21.4336 30 17.8125C30 14.1914 27.0586 11.25 23.4375 11.25ZM23.4375 20.625H22.5V15H23.4375C24.9902 15 26.25 16.2598 26.25 17.8125C26.25 19.3652 24.9902 20.625 23.4375 20.625Z" fill="#0F0F0F"/>
</g>
<defs>
<clipPath id="clip0_302_42">
<rect width="30" height="30" fill="white"/>
</clipPath>
</defs>
</svg>
